# xmcd CD database file
#
# Track frame offsets:
#	150
#	12747
#	27617
#	46775
#	65155
#	81175
#	96593
#	113600
#	124422
#	141975
#	158150
#	173198
#
# Disc length: 2589 seconds
#
# Revision: 0
# Processed by: cddbd v1.5PL3 Copyright (c) Steve Scherf et al.
# Submitted via: CDex 1.51
#
DISCID=ae0a1b0c
DTITLE=J. J. Reneaux - Cajun, Country and Blue
DYEAR=1900
DGENRE=Country
TTITLE0=Lève Tes Fenêtres Haut (Raise Your Windows High)
TTITLE1=Chafalaya Basin
TTITLE2=Ol' Muddy River
TTITLE3=Long and a Lonesome Cry
TTITLE4=All I Got is the Blues
TTITLE5=Je M'Endors
TTITLE6=Our Town
TTITLE7=Flammes D'Enfer
TTITLE8=Julie Jean, Bad, Bad Girl
TTITLE9=By You on the Bayou Tonight
TTITLE10=Working for a Lining
TTITLE11=Tous Les Temps En Temps (Every Now and Then)
EXTD=
EXTT0=
EXTT1=
EXTT2=
EXTT3=
EXTT4=
EXTT5=
EXTT6=
EXTT7=
EXTT8=
EXTT9=
EXTT10=
EXTT11=
PLAYORDER=
